<?xml version="1.0" encoding="UTF-8" standalone="no"?>
<!-- Created with Inkscape (http://www.inkscape.org/) -->

<svg
   xmlns:dc="http://purl.org/dc/elements/1.1/"
   xmlns:cc="http://creativecommons.org/ns#"
   xmlns:rdf="http://www.w3.org/1999/02/22-rdf-syntax-ns#"
   xmlns:svg="http://www.w3.org/2000/svg"
   xmlns="http://www.w3.org/2000/svg"
   xmlns:sodipodi="http://sodipodi.sourceforge.net/DTD/sodipodi-0.dtd"
   xmlns:inkscape="http://www.inkscape.org/namespaces/inkscape"
   id="svg2"
   version="1.1"
   inkscape:version="0.48.4 r9939"
   width="62.5"
   height="62.5"
   xml:space="preserve"
   sodipodi:docname="awake.svg"
   inkscape:export-filename="/home/matt/WHday/app/src/icons/awake-slider.png"
   inkscape:export-xdpi="144"
   inkscape:export-ydpi="144"><metadata
     id="metadata8"><rdf:RDF><cc:Work
         rdf:about=""><dc:format>image/svg+xml</dc:format><dc:type
           rdf:resource="http://purl.org/dc/dcmitype/StillImage" /><dc:title></dc:title></cc:Work></rdf:RDF></metadata><defs
     id="defs6"><clipPath
       clipPathUnits="userSpaceOnUse"
       id="clipPath16"><path
         d="M 0,50 50,50 50,0 0,0 0,50 z"
         id="path18" /></clipPath><clipPath
       clipPathUnits="userSpaceOnUse"
       id="clipPath28"><path
         d="M 0,50 50,50 50,0 0,0 0,50 z"
         id="path30" /></clipPath><clipPath
       clipPathUnits="userSpaceOnUse"
       id="clipPath44"><path
         d="M 0,50 50,50 50,0 0,0 0,50 z"
         id="path46" /></clipPath><clipPath
       clipPathUnits="userSpaceOnUse"
       id="clipPath60"><path
         d="M 0,50 50,50 50,0 0,0 0,50 z"
         id="path62" /></clipPath><clipPath
       clipPathUnits="userSpaceOnUse"
       id="clipPath80"><path
         d="M 0,50 50,50 50,0 0,0 0,50 z"
         id="path82" /></clipPath><filter
       inkscape:collect="always"
       id="filter3792"><feGaussianBlur
         inkscape:collect="always"
         stdDeviation="0.269745"
         id="feGaussianBlur3794" /></filter></defs><sodipodi:namedview
     pagecolor="#ffffff"
     bordercolor="#666666"
     borderopacity="1"
     objecttolerance="10"
     gridtolerance="10"
     guidetolerance="10"
     inkscape:pageopacity="0"
     inkscape:pageshadow="2"
     inkscape:window-width="729"
     inkscape:window-height="480"
     id="namedview4"
     showgrid="false"
     inkscape:zoom="3.776"
     inkscape:cx="27.012712"
     inkscape:cy="31.25"
     inkscape:window-x="65"
     inkscape:window-y="24"
     inkscape:window-maximized="0"
     inkscape:current-layer="g10" /><g
     id="g10"
     inkscape:groupmode="layer"
     inkscape:label="start"
     transform="matrix(1.25,0,0,-1.25,0,62.5)"><g
       id="g12"
       style="fill:#505ca9;fill-opacity:1" /><g
       id="g24"
       style="fill:#4d4d4d"><g
         id="g26"
         clip-path="url(#clipPath28)"
         style="fill:#4d4d4d"><g
           id="g32"
           transform="translate(21.5333,36.1488)"
           style="fill:#4d4d4d"><path
             d="m 0,0 c 0,-4.35 -3.526,-7.876 -7.876,-7.876 -4.349,0 -7.875,3.526 -7.875,7.876 0,4.35 3.526,7.876 7.875,7.876 C -3.526,7.876 0,4.35 0,0"
             style="fill:#4d4d4d;fill-opacity:1;fill-rule:nonzero;stroke:none"
             id="path34" /></g><g
           id="g36"
           transform="translate(44.5921,36.1488)"
           style="fill:#4d4d4d"><path
             d="m 0,0 c 0,-4.35 -3.526,-7.876 -7.876,-7.876 -4.349,0 -7.875,3.526 -7.875,7.876 0,4.35 3.526,7.876 7.875,7.876 C -3.526,7.876 0,4.35 0,0"
             style="fill:#4d4d4d;fill-opacity:1;fill-rule:nonzero;stroke:none"
             id="path38" /></g></g></g><g
       id="g40"
       style="stroke:#505ca9;stroke-opacity:1;fill:#4d4d4d"><g
         id="g42"
         clip-path="url(#clipPath44)"
         style="stroke:#505ca9;stroke-opacity:1;fill:#4d4d4d"><g
           id="g48"
           transform="translate(42.9661,23.1328)"
           style="stroke:#505ca9;stroke-opacity:1;fill:#4d4d4d"><path
             d="m 0,0 c 0,-9.922 -8.044,-17.966 -17.966,-17.966 -9.923,0 -17.966,8.044 -17.966,17.966 0,9.922 8.043,17.966 17.966,17.966 C -8.044,17.966 0,9.922 0,0"
             style="fill:#4d4d4d;fill-opacity:1;fill-rule:nonzero;stroke:#505ca9;stroke-opacity:1"
             id="path50" /></g><g
           id="g52"
           transform="translate(42.9661,23.1328)"
           style="stroke:#505ca9;stroke-opacity:1;fill:#4d4d4d"><path
             d="m 0,0 c 0,-9.922 -8.044,-17.966 -17.966,-17.966 -9.923,0 -17.966,8.044 -17.966,17.966 0,9.922 8.043,17.966 17.966,17.966 C -8.044,17.966 0,9.922 0,0 z"
             style="fill:#4d4d4d;stroke:#dddddd;stroke-opacity:1;stroke-width:1;stroke-linecap:butt;stroke-linejoin:miter;stroke-miterlimit:10;stroke-dasharray:none"
             id="path54" /></g></g></g><g
       id="g56"
       style="fill:#4d4d4d"><g
         id="g58"
         clip-path="url(#clipPath60)"
         style="fill:#4d4d4d"><g
           id="g64"
           transform="translate(28.5387,37.4167)"
           style="fill:#4d4d4d"><path
             d="m 0,0 c 0,-0.55 -0.45,-1 -1,-1 l -4.703,0 c -0.55,0 -1,0.45 -1,1 l 0,6.083 c 0,0.55 0.45,1 1,1 l 4.703,0 c 0.55,0 1,-0.45 1,-1 L 0,0 z"
             style="fill:#4d4d4d;fill-opacity:1;fill-rule:nonzero;stroke:none"
             id="path66" /></g><g
           id="g68"
           transform="translate(13.7986,5.9927)"
           style="fill:#4d4d4d"><path
             d="M 0,0 C -0.322,-0.446 -0.951,-0.546 -1.396,-0.224 L -3.625,1.389 C -4.07,1.712 -4.171,2.34 -3.849,2.786 l 3.567,4.928 C 0.041,8.159 0.669,8.26 1.115,7.937 L 3.343,6.324 C 3.789,6.002 3.889,5.374 3.567,4.928 L 0,0 z"
             style="fill:#4d4d4d;fill-opacity:1;fill-rule:nonzero;stroke:none"
             id="path70" /></g><g
           id="g72"
           transform="translate(36.5755,5.9927)"
           style="fill:#4d4d4d"><path
             d="M 0,0 C 0.322,-0.446 0.951,-0.546 1.396,-0.224 L 3.625,1.389 C 4.07,1.712 4.171,2.34 3.849,2.786 L 0.282,7.714 C -0.041,8.159 -0.669,8.26 -1.115,7.937 L -3.343,6.324 C -3.789,6.002 -3.889,5.374 -3.567,4.928 L 0,0 z"
             style="fill:#4d4d4d;fill-opacity:1;fill-rule:nonzero;stroke:none"
             id="path74" /></g></g></g><g
       id="g76"
       style="stroke:#505ca9;stroke-opacity:1;fill:#505ca9;fill-opacity:1"><g
         id="g78"
         clip-path="url(#clipPath80)"
         style="stroke:#505ca9;stroke-opacity:1;fill:#505ca9;fill-opacity:1"><g
           id="g84"
           transform="translate(26.6965,23.8372)"
           style="stroke:#505ca9;stroke-opacity:1;fill:#505ca9;fill-opacity:1"><path
             d="m 0,0 c 0,-0.55 -0.45,-1 -1,-1 l -1.019,0 c -0.55,0 -1,0.45 -1,1 l 0,8.872 c 0,0.55 0.45,1 1,1 l 1.019,0 c 0.55,0 1,-0.45 1,-1 L 0,0 z"
             style="fill:#dddddd;fill-opacity:1;fill-rule:nonzero;stroke:#dddddd;stroke-opacity:1"
             id="path86" /></g><g
           id="g88"
           transform="translate(32.7428,18.0195)"
           style="stroke:#505ca9;stroke-opacity:1;fill:#505ca9;fill-opacity:1"><path
             d="m 0,0 c 0.389,-0.389 0.389,-1.025 0,-1.414 l -0.721,-0.721 c -0.388,-0.389 -1.025,-0.389 -1.414,0 l -6.273,6.274 c -0.389,0.389 -0.389,1.025 0,1.414 l 0.72,0.72 c 0.389,0.389 1.026,0.389 1.415,0 L 0,0 z"
             style="fill:#dddddd;fill-opacity:1;fill-rule:nonzero;stroke:#dddddd;stroke-opacity:1;filter:url(#filter3792)"
             id="path90" /></g></g></g></g></svg>