<?xml version="1.0" encoding="UTF-8" standalone="no"?>
<!-- Created with Inkscape (http://www.inkscape.org/) -->

<svg
   xmlns:dc="http://purl.org/dc/elements/1.1/"
   xmlns:cc="http://creativecommons.org/ns#"
   xmlns:rdf="http://www.w3.org/1999/02/22-rdf-syntax-ns#"
   xmlns:svg="http://www.w3.org/2000/svg"
   xmlns="http://www.w3.org/2000/svg"
   xmlns:sodipodi="http://sodipodi.sourceforge.net/DTD/sodipodi-0.dtd"
   xmlns:inkscape="http://www.inkscape.org/namespaces/inkscape"
   id="svg2"
   version="1.1"
   inkscape:version="0.48.4 r9939"
   width="62.5"
   height="62.5"
   xml:space="preserve"
   sodipodi:docname="bedtime.svg"
   inkscape:export-filename="/home/matt/WHday/app/src/icons/bedtime-slider.png"
   inkscape:export-xdpi="144"
   inkscape:export-ydpi="144"><metadata
     id="metadata8"><rdf:RDF><cc:Work
         rdf:about=""><dc:format>image/svg+xml</dc:format><dc:type
           rdf:resource="http://purl.org/dc/dcmitype/StillImage" /><dc:title></dc:title></cc:Work></rdf:RDF></metadata><defs
     id="defs6"><clipPath
       clipPathUnits="userSpaceOnUse"
       id="clipPath16"><path
         d="M 0,50 50,50 50,0 0,0 0,50 z"
         id="path18" /></clipPath><clipPath
       clipPathUnits="userSpaceOnUse"
       id="clipPath28"><path
         d="M 0,50 50,50 50,0 0,0 0,50 z"
         id="path30" /></clipPath><clipPath
       clipPathUnits="userSpaceOnUse"
       id="clipPath48"><path
         d="M 0,50 50,50 50,0 0,0 0,50 z"
         id="path50" /></clipPath></defs><sodipodi:namedview
     pagecolor="#ffffff"
     bordercolor="#666666"
     borderopacity="1"
     objecttolerance="10"
     gridtolerance="10"
     guidetolerance="10"
     inkscape:pageopacity="0"
     inkscape:pageshadow="2"
     inkscape:window-width="1301"
     inkscape:window-height="744"
     id="namedview4"
     showgrid="false"
     inkscape:zoom="3.776"
     inkscape:cx="-15.360169"
     inkscape:cy="31.25"
     inkscape:window-x="65"
     inkscape:window-y="24"
     inkscape:window-maximized="1"
     inkscape:current-layer="g10" /><g
     id="g10"
     inkscape:groupmode="layer"
     inkscape:label="night"
     transform="matrix(1.25,0,0,-1.25,0,62.5)"><g
       id="g24"
       style="fill:#4d4d4d"><g
         id="g26"
         clip-path="url(#clipPath28)"
         style="fill:#4d4d4d"><g
           id="g32"
           transform="translate(46.5833,25.5653)"
           style="fill:#4d4d4d"><path
             d="m 0,0 c -0.853,-0.89 -1.685,-1.78 -2.546,-2.641 -0.221,-0.222 -0.291,-0.424 -0.236,-0.72 0.222,-1.196 0.428,-2.395 0.654,-3.673 -0.769,0.399 -1.482,0.773 -2.198,1.142 -0.498,0.257 -1.002,0.715 -1.499,0.708 -0.518,-0.007 -1.032,-0.458 -1.544,-0.724 -0.695,-0.36 -1.385,-0.727 -2.159,-1.135 0.212,1.239 0.397,2.39 0.61,3.536 0.07,0.374 0.026,0.637 -0.27,0.933 -0.842,0.838 -1.629,1.731 -2.404,2.566 0.77,0.115 1.693,0.254 2.617,0.39 0.301,0.045 0.604,0.083 0.906,0.118 0.278,0.032 0.439,0.17 0.564,0.434 0.523,1.101 1.076,2.187 1.658,3.359 0.312,-0.621 0.594,-1.18 0.874,-1.739 C -4.707,2.023 -4.416,1.503 -4.187,0.957 -4.053,0.639 -3.84,0.537 -3.536,0.495 -2.344,0.333 -1.153,0.162 0,0"
             style="fill:#4d4d4d;fill-opacity:1;fill-rule:nonzero;stroke:none"
             id="path34" /></g><g
           id="g36"
           transform="translate(34.4738,38.9679)"
           style="fill:#4d4d4d"><path
             d="m 0,0 c -0.853,-0.889 -1.685,-1.78 -2.546,-2.641 -0.221,-0.222 -0.291,-0.424 -0.236,-0.72 0.222,-1.196 0.428,-2.395 0.654,-3.673 -0.769,0.399 -1.482,0.773 -2.198,1.142 -0.498,0.257 -1.002,0.715 -1.499,0.708 -0.518,-0.007 -1.032,-0.458 -1.544,-0.724 -0.695,-0.36 -1.385,-0.727 -2.159,-1.135 0.212,1.239 0.397,2.39 0.61,3.536 0.07,0.374 0.026,0.637 -0.27,0.933 -0.842,0.838 -1.629,1.731 -2.404,2.566 0.77,0.115 1.693,0.254 2.617,0.39 0.301,0.045 0.604,0.083 0.906,0.118 0.278,0.032 0.439,0.17 0.564,0.434 0.523,1.101 1.076,2.187 1.658,3.359 0.312,-0.621 0.594,-1.18 0.874,-1.739 C -4.707,2.023 -4.416,1.503 -4.187,0.957 -4.053,0.639 -3.84,0.537 -3.536,0.495 -2.344,0.333 -1.153,0.162 0,0"
             style="fill:#4d4d4d;fill-opacity:1;fill-rule:nonzero;stroke:none"
             id="path38" /></g><g
           id="g40"
           transform="translate(20.7585,12.5446)"
           style="fill:#4d4d4d"><path
             d="m 0,0 c -0.853,-0.889 -1.685,-1.78 -2.546,-2.641 -0.221,-0.222 -0.291,-0.424 -0.236,-0.72 0.222,-1.196 0.428,-2.395 0.654,-3.673 -0.769,0.399 -1.482,0.773 -2.198,1.142 -0.498,0.257 -1.002,0.715 -1.499,0.708 -0.518,-0.007 -1.032,-0.458 -1.544,-0.724 -0.695,-0.36 -1.385,-0.727 -2.159,-1.135 0.212,1.239 0.397,2.39 0.61,3.536 0.07,0.374 0.026,0.637 -0.27,0.933 -0.842,0.838 -1.629,1.731 -2.404,2.566 0.77,0.115 1.693,0.254 2.617,0.39 0.301,0.045 0.604,0.083 0.906,0.118 0.278,0.032 0.439,0.17 0.564,0.434 0.523,1.101 1.076,2.187 1.658,3.359 0.312,-0.621 0.594,-1.18 0.874,-1.739 C -4.707,2.023 -4.416,1.503 -4.187,0.957 -4.053,0.639 -3.84,0.537 -3.536,0.495 -2.344,0.333 -1.153,0.162 0,0"
             style="fill:#4d4d4d;fill-opacity:1;fill-rule:nonzero;stroke:none"
             id="path42" /></g></g></g><g
       id="g44"
       style="fill:#4d4d4d;fill-opacity:1"><g
         id="g46"
         clip-path="url(#clipPath48)"
         style="fill:#4d4d4d;fill-opacity:1"><g
           id="g52"
           transform="translate(14.4752,19.5759)"
           style="fill:#4d4d4d;fill-opacity:1"><path
             d="m 0,0 c 4.531,-7.975 14.669,-10.766 22.643,-6.236 1.578,0.897 2.944,2.019 4.099,3.295 C 19.118,-4.588 10.99,-1.213 6.933,5.927 3.903,11.26 3.856,17.463 6.233,22.642 -1.74,18.11 -4.53,7.974 0,0"
             style="fill:#4d4d4d;fill-opacity:1;fill-rule:nonzero;stroke:none"
             id="path54" /></g></g></g></g></svg>