<?xml version="1.0" encoding="UTF-8" standalone="no"?>
<svg
   xmlns:dc="http://purl.org/dc/elements/1.1/"
   xmlns:cc="http://creativecommons.org/ns#"
   xmlns:rdf="http://www.w3.org/1999/02/22-rdf-syntax-ns#"
   xmlns:svg="http://www.w3.org/2000/svg"
   xmlns="http://www.w3.org/2000/svg"
   xmlns:sodipodi="http://sodipodi.sourceforge.net/DTD/sodipodi-0.dtd"
   xmlns:inkscape="http://www.inkscape.org/namespaces/inkscape"
   version="1.1"
   x="0px"
   y="0px"
   viewBox="0 0 100 100"
   enable-background="new 0 0 100 100"
   xml:space="preserve"
   height="100px"
   width="100px"
   id="svg2"
   inkscape:version="0.48.4 r9939"
   sodipodi:docname="monkeyface.svg"><metadata
     id="metadata18"><rdf:RDF><cc:Work
         rdf:about=""><dc:format>image/svg+xml</dc:format><dc:type
           rdf:resource="http://purl.org/dc/dcmitype/StillImage" /></cc:Work></rdf:RDF></metadata><defs
     id="defs16" /><sodipodi:namedview
     pagecolor="#ffffff"
     bordercolor="#666666"
     borderopacity="1"
     objecttolerance="10"
     gridtolerance="10"
     guidetolerance="10"
     inkscape:pageopacity="0"
     inkscape:pageshadow="2"
     inkscape:window-width="729"
     inkscape:window-height="480"
     id="namedview14"
     showgrid="false"
     inkscape:zoom="2.36"
     inkscape:cx="50"
     inkscape:cy="50"
     inkscape:window-x="65"
     inkscape:window-y="34"
     inkscape:window-maximized="0"
     inkscape:current-layer="Your_Icon" /><g
     id="Captions" /><g
     id="Your_Icon"><circle
       cx="40.486"
       cy="37.794"
       r="5.816"
       id="circle6"
       style="fill:#1a1a1a" /><circle
       cx="59.516"
       cy="37.794"
       r="5.816"
       id="circle8"
       style="fill:#1a1a1a" /><g
       id="g10"
       style="fill:#1a1a1a"><path
         d="M85.887,25.629c-0.973,0-1.919,0.107-2.834,0.302C75.771,15.5,63.687,8.67,50,8.67c-13.686,0-25.771,6.831-33.052,17.262    c-0.914-0.195-1.861-0.302-2.833-0.302c-7.474,0-13.531,6.058-13.531,13.53c0,5.976,3.878,11.037,9.252,12.829    C11.385,72.824,28.769,89.25,50,89.25c21.233,0,38.616-16.426,40.167-37.262c5.373-1.792,9.252-6.853,9.252-12.829    C99.418,31.687,93.359,25.629,85.887,25.629z M10.508,45.49c-3.293,0-5.963-2.669-5.963-5.963c0-3.293,2.67-5.963,5.963-5.963    c3.294,0,5.963,2.67,5.963,5.963C16.471,42.821,13.802,45.49,10.508,45.49z M50,83.062c-14.272,0-26.235-7.656-29.458-17.962    c6.768,3.454,17.515,5.585,29.457,5.585c11.943,0,22.69-2.131,29.458-5.585C76.235,75.406,64.273,83.062,50,83.062z     M80.306,59.926c-4.811,3.572-15.816,6.76-30.307,6.76c-14.488,0-25.495-3.188-30.305-6.759c-0.002-0.131-0.013-0.26-0.013-0.392    c0-5.793,2.703-11.093,7.177-15.193c-1.663-2.316-2.652-5.149-2.652-8.218C24.206,28.323,30.529,22,38.329,22    c4.85,0,9.127,2.447,11.67,6.171C52.542,24.447,56.819,22,61.669,22c7.802,0,14.125,6.323,14.125,14.124    c0,3.069-0.989,5.902-2.652,8.218c4.474,4.1,7.177,9.4,7.177,15.193C80.318,59.666,80.309,59.796,80.306,59.926z M89.492,45.49    c-3.295,0-5.963-2.669-5.963-5.963c0-3.293,2.668-5.963,5.963-5.963c3.293,0,5.963,2.67,5.963,5.963    C95.455,42.821,92.785,45.49,89.492,45.49z"
         id="path12"
         style="fill:#1a1a1a" /></g></g></svg>