<?xml version="1.0" encoding="UTF-8" standalone="no"?>
<svg
   xmlns:dc="http://purl.org/dc/elements/1.1/"
   xmlns:cc="http://creativecommons.org/ns#"
   xmlns:rdf="http://www.w3.org/1999/02/22-rdf-syntax-ns#"
   xmlns:svg="http://www.w3.org/2000/svg"
   xmlns="http://www.w3.org/2000/svg"
   xmlns:sodipodi="http://sodipodi.sourceforge.net/DTD/sodipodi-0.dtd"
   xmlns:inkscape="http://www.inkscape.org/namespaces/inkscape"
   version="1.1"
   x="0px"
   y="0px"
   viewBox="0 0 91.380188 109.34676"
   enable-background="new 0 0 100 100"
   xml:space="preserve"
   height="109.34676"
   width="91.380188"
   id="svg2"
   inkscape:version="0.48.4 r9939"
   sodipodi:docname="monkeyface-marker.svg"
   inkscape:export-filename="/home/matt/WHday/app/src/icons/monkeyface-marker.png"
   inkscape:export-xdpi="131.69115"
   inkscape:export-ydpi="131.69115"><metadata
     id="metadata18"><rdf:RDF><cc:Work
         rdf:about=""><dc:format>image/svg+xml</dc:format><dc:type
           rdf:resource="http://purl.org/dc/dcmitype/StillImage" /><dc:title></dc:title></cc:Work></rdf:RDF></metadata><defs
     id="defs16" /><sodipodi:namedview
     pagecolor="#ffffff"
     bordercolor="#666666"
     borderopacity="1"
     objecttolerance="10"
     gridtolerance="10"
     guidetolerance="10"
     inkscape:pageopacity="0"
     inkscape:pageshadow="2"
     inkscape:window-width="1301"
     inkscape:window-height="744"
     id="namedview14"
     showgrid="false"
     inkscape:zoom="1.668772"
     inkscape:cx="-81.645702"
     inkscape:cy="52.634923"
     inkscape:window-x="65"
     inkscape:window-y="24"
     inkscape:window-maximized="1"
     inkscape:current-layer="layer1"
     fit-margin-top="0"
     fit-margin-left="0"
     fit-margin-right="0"
     fit-margin-bottom="0" /><g
     inkscape:groupmode="layer"
     id="layer1"
     inkscape:label="marker"
     transform="translate(-5.5810923,16.452805)"
     style="display:inline"><path
       sodipodi:type="arc"
       style="fill:#782167;fill-opacity:1;stroke:none"
       id="path3041"
       sodipodi:cx="24.788136"
       sodipodi:cy="26.754238"
       sodipodi:rx="20.974577"
       sodipodi:ry="20.974577"
       d="m 45.762712,26.754238 c 0,11.583939 -9.390637,20.974577 -20.974576,20.974577 -11.583939,0 -20.9745774,-9.390638 -20.9745774,-20.974577 0,-11.583939 9.3906384,-20.9745768 20.9745774,-20.9745768 11.583939,0 20.974576,9.3906378 20.974576,20.9745768 z"
       transform="matrix(2.1783559,0,0,2.1783559,-2.7261955,-29.042964)" /><rect
       style="fill:#782167;fill-opacity:1;stroke:none"
       id="rect3813"
       width="51.075539"
       height="51.075539"
       x="-22.355644"
       y="-101.97429"
       transform="matrix(-0.71367272,0.7004793,-0.7004793,-0.71367272,0,0)" /></g><g
     inkscape:groupmode="layer"
     id="layer2"
     inkscape:label="monkeyface"
     style="display:inline"
     transform="translate(-5.5810923,-7.547195)"><g
       id="Captions"
       transform="translate(-6.3574322,9.3620339)" /><g
       id="Your_Icon"
       transform="matrix(0.82909651,0,0,0.82909651,9.9219369,13.828796)"
       style="fill:#ffffff"><circle
         cx="40.486"
         cy="37.793999"
         r="5.816"
         id="circle6"
         style="fill:#ffffff"
         sodipodi:cx="40.486"
         sodipodi:cy="37.793999"
         sodipodi:rx="5.816"
         sodipodi:ry="5.816"
         d="m 46.302,37.793999 c 0,3.212088 -2.603912,5.816 -5.816,5.816 -3.212088,0 -5.816,-2.603912 -5.816,-5.816 0,-3.212088 2.603912,-5.816 5.816,-5.816 3.212088,0 5.816,2.603912 5.816,5.816 z" /><circle
         cx="59.515999"
         cy="37.793999"
         r="5.816"
         id="circle8"
         style="fill:#ffffff"
         sodipodi:cx="59.515999"
         sodipodi:cy="37.793999"
         sodipodi:rx="5.816"
         sodipodi:ry="5.816"
         d="m 65.331999,37.793999 c 0,3.212088 -2.603912,5.816 -5.816,5.816 -3.212088,0 -5.816,-2.603912 -5.816,-5.816 0,-3.212088 2.603912,-5.816 5.816,-5.816 3.212088,0 5.816,2.603912 5.816,5.816 z" /><g
         id="g10"
         style="fill:#ffffff"><path
           d="m 85.887,25.629 c -0.973,0 -1.919,0.107 -2.834,0.302 C 75.771,15.5 63.687,8.67 50,8.67 36.314,8.67 24.229,15.501 16.948,25.932 16.034,25.737 15.087,25.63 14.115,25.63 c -7.474,0 -13.531,6.058 -13.531,13.53 0,5.976 3.878,11.037 9.252,12.829 C 11.385,72.824 28.769,89.25 50,89.25 c 21.233,0 38.616,-16.426 40.167,-37.262 5.373,-1.792 9.252,-6.853 9.252,-12.829 -10e-4,-7.472 -6.06,-13.53 -13.532,-13.53 z M 10.508,45.49 c -3.293,0 -5.963,-2.669 -5.963,-5.963 0,-3.293 2.67,-5.963 5.963,-5.963 3.294,0 5.963,2.67 5.963,5.963 0,3.294 -2.669,5.963 -5.963,5.963 z M 50,83.062 c -14.272,0 -26.235,-7.656 -29.458,-17.962 6.768,3.454 17.515,5.585 29.457,5.585 11.943,0 22.69,-2.131 29.458,-5.585 C 76.235,75.406 64.273,83.062 50,83.062 z M 80.306,59.926 c -4.811,3.572 -15.816,6.76 -30.307,6.76 -14.488,0 -25.495,-3.188 -30.305,-6.759 -0.002,-0.131 -0.013,-0.26 -0.013,-0.392 0,-5.793 2.703,-11.093 7.177,-15.193 -1.663,-2.316 -2.652,-5.149 -2.652,-8.218 0,-7.801 6.323,-14.124 14.123,-14.124 4.85,0 9.127,2.447 11.67,6.171 2.543,-3.724 6.82,-6.171 11.67,-6.171 7.802,0 14.125,6.323 14.125,14.124 0,3.069 -0.989,5.902 -2.652,8.218 4.474,4.1 7.177,9.4 7.177,15.193 -0.001,0.131 -0.01,0.261 -0.013,0.391 z M 89.492,45.49 c -3.295,0 -5.963,-2.669 -5.963,-5.963 0,-3.293 2.668,-5.963 5.963,-5.963 3.293,0 5.963,2.67 5.963,5.963 0,3.294 -2.67,5.963 -5.963,5.963 z"
           id="path12"
           style="fill:#ffffff"
           inkscape:connector-curvature="0" /></g></g></g></svg>