<?xml version="1.0" encoding="UTF-8" standalone="no"?>
<svg
   xmlns:dc="http://purl.org/dc/elements/1.1/"
   xmlns:cc="http://creativecommons.org/ns#"
   xmlns:rdf="http://www.w3.org/1999/02/22-rdf-syntax-ns#"
   xmlns:svg="http://www.w3.org/2000/svg"
   xmlns="http://www.w3.org/2000/svg"
   xmlns:sodipodi="http://sodipodi.sourceforge.net/DTD/sodipodi-0.dtd"
   xmlns:inkscape="http://www.inkscape.org/namespaces/inkscape"
   version="1.1"
   x="0px"
   y="0px"
   viewBox="0 0 100 100"
   id="svg2"
   inkscape:version="0.91 r13725"
   sodipodi:docname="time.svg">
  <metadata
     id="metadata10">
    <rdf:RDF>
      <cc:Work
         rdf:about="">
        <dc:format>image/svg+xml</dc:format>
        <dc:type
           rdf:resource="http://purl.org/dc/dcmitype/StillImage" />
      </cc:Work>
    </rdf:RDF>
  </metadata>
  <defs
     id="defs8" />
  <sodipodi:namedview
     pagecolor="#ffffff"
     bordercolor="#666666"
     borderopacity="1"
     objecttolerance="10"
     gridtolerance="10"
     guidetolerance="10"
     inkscape:pageopacity="0"
     inkscape:pageshadow="2"
     inkscape:window-width="717"
     inkscape:window-height="480"
     id="namedview6"
     showgrid="false"
     inkscape:zoom="2.36"
     inkscape:cx="50"
     inkscape:cy="50"
     inkscape:window-x="65"
     inkscape:window-y="24"
     inkscape:window-maximized="0"
     inkscape:current-layer="svg2" />
  <path
     d="M 50,5 C 25.17272,5 5,25.18658 5,50.00005 c -9e-6,24.8133 20.172729,45 45,45 24.827271,0 45,-20.1867 45,-45 C 94.999991,25.18657 74.827235,5 50,5 z m 0,10.65625 c 18.940758,0 34.343759,15.41353 34.34375,34.3438 0,18.9301 -15.402965,34.3125 -34.34375,34.3125 -18.940785,0 -34.343741,-15.3824 -34.34375,-34.3125 0,-18.93028 15.402956,-34.3438 34.34375,-34.3438 z m -0.03125,4.1875 c -0.970511,0.005 -1.91469,0.24769 -2.59375,0.6875 -0.679015,0.43985 -1.042896,1.04074 -1.03125,1.65625 l 0,20.8125 c -0.12947,0.0687 -0.280509,0.1111 -0.40625,0.1875 -2.443138,1.48442 -3.787505,4.07855 -3.78125,6.81255 -0.0063,2.7338 1.338004,5.328 3.78125,6.8125 2.443022,1.4842 5.650611,1.4845 8.09375,0 1.315697,-0.7994 2.322749,-1.9507 2.96875,-3.25 l 11.5,0 c 0.958128,0.087 1.876927,-0.5421 2.375,-1.6875 0.49802,-1.1453 0.498029,-2.6046 0,-3.75 -0.498082,-1.1454 -1.416863,-1.77482 -2.375,-1.68755 l -11.5,0 C 56.354502,45.13425 55.355573,43.99213 54.03125,43.1875 53.916283,43.1176 53.774343,43.06337 53.65625,43 l 0,-20.8125 c 0.01177,-0.624 -0.398012,-1.215 -1.09375,-1.65625 -0.695738,-0.44124 -1.609878,-0.69499 -2.59375,-0.6875 z"
     style="fill:#4d4d4d"
     fill="#000000"
     stroke="none"
     id="path4" />
</svg>
