<?xml version="1.0" encoding="UTF-8" standalone="no"?>
<!-- Created with Inkscape (http://www.inkscape.org/) -->

<svg
   xmlns:dc="http://purl.org/dc/elements/1.1/"
   xmlns:cc="http://creativecommons.org/ns#"
   xmlns:rdf="http://www.w3.org/1999/02/22-rdf-syntax-ns#"
   xmlns:svg="http://www.w3.org/2000/svg"
   xmlns="http://www.w3.org/2000/svg"
   xmlns:sodipodi="http://sodipodi.sourceforge.net/DTD/sodipodi-0.dtd"
   xmlns:inkscape="http://www.inkscape.org/namespaces/inkscape"
   id="svg2"
   version="1.1"
   inkscape:version="0.91 r13725"
   xml:space="preserve"
   width="62.5"
   height="62.5"
   viewBox="0 0 62.5 62.5"
   sodipodi:docname="V.ai.svg"><metadata
     id="metadata8"><rdf:RDF><cc:Work
         rdf:about=""><dc:format>image/svg+xml</dc:format><dc:type
           rdf:resource="http://purl.org/dc/dcmitype/StillImage" /><dc:title></dc:title></cc:Work></rdf:RDF></metadata><defs
     id="defs6"><clipPath
       clipPathUnits="userSpaceOnUse"
       id="clipPath16"><path
         d="M 0,50 50,50 50,0 0,0 0,50 Z"
         id="path18"
         inkscape:connector-curvature="0" /></clipPath><clipPath
       clipPathUnits="userSpaceOnUse"
       id="clipPath28"><path
         d="M 0,50 50,50 50,0 0,0 0,50 Z"
         id="path30"
         inkscape:connector-curvature="0" /></clipPath></defs><sodipodi:namedview
     pagecolor="#ffffff"
     bordercolor="#666666"
     borderopacity="1"
     objecttolerance="10"
     gridtolerance="10"
     guidetolerance="10"
     inkscape:pageopacity="0"
     inkscape:pageshadow="2"
     inkscape:window-width="1301"
     inkscape:window-height="744"
     id="namedview4"
     showgrid="false"
     inkscape:zoom="3.776"
     inkscape:cx="-7.9449153"
     inkscape:cy="31.25"
     inkscape:window-x="65"
     inkscape:window-y="24"
     inkscape:window-maximized="1"
     inkscape:current-layer="g26" /><g
     id="g10"
     inkscape:groupmode="layer"
     inkscape:label="V"
     transform="matrix(1.25,0,0,-1.25,0,62.5)"><g
       id="g12"><g
         id="g14"
         clip-path="url(#clipPath16)"><g
           id="g20"
           transform="translate(50,25)"><path
             d="m 0,0 c 0,-13.807 -11.193,-25 -25,-25 -13.807,0 -25,11.193 -25,25 0,13.807 11.193,25 25,25 C -11.193,25 0,13.807 0,0"
             style="fill:#fecb46;fill-opacity:1;fill-rule:nonzero;stroke:none"
             id="path22"
             inkscape:connector-curvature="0" /></g></g></g><g
       clip-path="url(#clipPath28)"
       id="g26"><g
         transform="translate(30.3986,20.8683)"
         id="g32"
         style="stroke-width:2.4;stroke-miterlimit:4;stroke-dasharray:none"><path
           inkscape:connector-curvature="0"
           id="path34"
           style="fill:none;stroke:#ffffff;stroke-width:2.4;stroke-linecap:butt;stroke-linejoin:miter;stroke-miterlimit:4;stroke-dasharray:none;stroke-opacity:1"
           d="M 0,0 C 1.901,2.547 1.378,6.146 -1.168,8.047" /></g><g
         transform="translate(36.283,17.931)"
         id="g36"
         style="stroke-width:2.4;stroke-miterlimit:4;stroke-dasharray:none"><path
           inkscape:connector-curvature="0"
           id="path38"
           style="fill:none;stroke:#ffffff;stroke-width:2.4;stroke-linecap:butt;stroke-linejoin:miter;stroke-miterlimit:4;stroke-dasharray:none;stroke-opacity:1"
           d="M 0,0 C 3.34,4.475 2.422,10.798 -2.053,14.138" /></g><g
         transform="translate(40.9173,13.0647)"
         id="g40"
         style="stroke-width:2.4;stroke-miterlimit:4;stroke-dasharray:none"><path
           inkscape:connector-curvature="0"
           id="path42"
           style="fill:none;stroke:#ffffff;stroke-width:2.4;stroke-linecap:butt;stroke-linejoin:miter;stroke-miterlimit:4;stroke-dasharray:none;stroke-opacity:1"
           d="M 0,0 C 6.374,6.821 6.012,17.497 -0.808,23.871" /></g><g
         transform="translate(10.1892,31.7544)"
         id="g44"><path
           inkscape:connector-curvature="0"
           id="path46"
           style="fill:#ffffff;fill-opacity:1;fill-rule:nonzero;stroke:none"
           d="m 0,0 c 0,-4.723 3.829,-8.552 8.552,-8.552 4.722,0 8.551,3.829 8.551,8.552 0,4.723 -3.829,8.552 -8.551,8.552 C 3.829,8.552 0,4.723 0,0" /></g><g
         transform="translate(23.8781,32.5499)"
         id="g48"><path
           inkscape:connector-curvature="0"
           id="path50"
           style="fill:#ffffff;fill-opacity:1;fill-rule:nonzero;stroke:none"
           d="m 0,0 c 0,-1.62 1.313,-2.933 2.933,-2.933 1.62,0 2.934,1.313 2.934,2.933 0,1.62 -1.314,2.933 -2.934,2.933 C 1.313,2.933 0,1.62 0,0" /></g><g
         transform="translate(7.5946,32.5499)"
         id="g52"><path
           inkscape:connector-curvature="0"
           id="path54"
           style="fill:#ffffff;fill-opacity:1;fill-rule:nonzero;stroke:none"
           d="m 0,0 c 0,-1.62 1.313,-2.933 2.933,-2.933 1.62,0 2.934,1.313 2.934,2.933 0,1.62 -1.314,2.933 -2.934,2.933 C 1.313,2.933 0,1.62 0,0" /></g><g
         transform="translate(10.8523,16.1036)"
         id="g56"><path
           inkscape:connector-curvature="0"
           id="path58"
           style="fill:#ffffff;fill-opacity:1;fill-rule:nonzero;stroke:none"
           d="m 0,0 c 0,-5.69 3.532,-10.302 7.888,-10.302 4.357,0 7.889,4.612 7.889,10.302 0,5.69 -3.532,10.302 -7.889,10.302 C 3.532,10.302 0,5.69 0,0" /></g><g
         transform="translate(15.4785,8.7619)"
         id="g60"><path
           inkscape:connector-curvature="0"
           id="path62"
           style="fill:none;stroke:#fbf9fb;stroke-width:2;stroke-linecap:butt;stroke-linejoin:miter;stroke-miterlimit:10;stroke-dasharray:none;stroke-opacity:1"
           d="M 0,0 C -4.931,-1.189 -10.657,5.053 -12.803,13.955" /></g></g></g></svg>